<?xml version="1.0" encoding="utf-8"?>
<!-- Generator: Adobe Illustrator 15.0.0, SVG Export Plug-In . SVG Version: 6.00 Build 0)  -->
<!DOCTYPE svg PUBLIC "-//W3C//DTD SVG 1.1//EN" "http://www.w3.org/Graphics/SVG/1.1/DTD/svg11.dtd">
<svg version="1.1" id="Layer_1" xmlns="http://www.w3.org/2000/svg" xmlns:xlink="http://www.w3.org/1999/xlink" x="0px" y="0px"
	 width="2304px" height="2304px" viewBox="0 0 2304 2304" enable-background="new 0 0 2304 2304" xml:space="preserve">
<g>
	<g>
		<g>
			<path fill="#CBB03A" d="M307.682,493.075c0-298.64,0-327.775-94.69-327.775v-35.205c63.129,0,156.604,2.428,269.502,2.428
				c121.399,0,250.08-1.214,348.415-2.43c-3.642,65.555-7.285,151.749-9.713,259.792h-33.992
				c-3.641-93.477-33.99-117.757-128.68-117.757H490.994v256.151h112.901c101.973,0,128.68-6.07,137.179-59.485l32.777,0.001
				c-2.427,40.062-3.642,83.765-3.642,125.039c0,48.56,1.214,97.119,3.642,142.036h-31.563
				c-7.284-58.271-33.993-67.983-134.752-67.983H490.994v212.446c0,46.132,3.64,50.987,48.558,50.987
				c55.842,1.215,103.188,2.428,159.03,0c70.412-2.428,109.259-19.423,116.545-103.188h33.99
				c-4.857,108.044-8.499,184.527-8.499,253.722c-99.546-1.214-214.874-2.428-321.705-2.428c-135.966,0-248.865,1.214-311.992,2.428
				v-35.204c100.76,0,100.76-29.137,100.76-349.627V493.075z"/>
			<path fill="#CBB03A" d="M931.662,493.075c0-298.64,0-327.775-94.69-327.775v-35.205c63.126,0,156.604,2.428,269.503,2.428
				c121.398,0,250.079-1.214,348.415-2.43c-3.644,65.555-7.285,151.749-9.713,259.792h-33.992
				c-3.643-93.477-33.99-117.757-128.684-117.757h-167.528v256.151h112.9c101.972,0,128.683-6.07,137.179-59.485l32.778,0.001
				c-2.428,40.062-3.64,83.765-3.64,125.039c0,48.56,1.212,97.119,3.64,142.036h-31.563c-7.286-58.271-33.992-67.983-134.753-67.983
				h-116.542v212.446c0,46.132,3.642,50.987,48.561,50.987c55.842,1.215,103.188,2.428,159.03,0
				c70.413-2.428,109.259-19.423,116.543-103.188h33.993c-4.856,108.044-8.499,184.527-8.499,253.722
				c-99.547-1.214-214.876-2.428-321.705-2.428c-135.967,0-248.867,1.214-311.993,2.428v-35.204
				c100.759,0,100.759-29.137,100.759-349.627V493.075L931.662,493.075z"/>
			<path fill="#CBB03A" d="M1555.645,493.075c0-298.64,0-327.775-94.69-327.775v-35.205c63.124,0,156.603,2.428,269.503,2.428
				c121.399,0,250.077-1.214,348.411-2.43c-3.642,65.555-7.286,151.749-9.712,259.792h-33.99
				c-3.642-93.477-33.992-117.757-128.682-117.757h-167.529v256.151h112.901c101.972,0,128.678-6.07,137.175-59.485l32.778,0.001
				c-2.427,40.062-3.64,83.765-3.64,125.039c0,48.56,1.213,97.119,3.642,142.036h-31.563c-7.287-58.271-33.99-67.983-134.75-67.983
				h-116.543v212.446c0,46.132,3.643,50.987,48.561,50.987c55.842,1.215,103.188,2.428,159.03,0
				c70.41-2.428,109.257-19.423,116.542-103.188h33.99c-4.854,108.044-8.496,184.527-8.498,253.722
				c-99.546-1.214-214.87-2.428-321.702-2.428c-135.967,0-248.867,1.214-311.994,2.428v-35.204
				c100.761,0,100.761-29.137,100.761-349.627V493.075L1555.645,493.075z"/>
		</g>
	</g>
	<g>
		<path fill="#2D332C" d="M614.38,2167.026H303.595v-259.788c0-44.512,11.862-85.275,35.587-122.297l134.446-210.87
			c21.968-33.921,32.953-73.146,32.953-117.655v-165.249c0-36.124-15.679-54.205-47.02-54.205
			c-31.358,0-47.019,18.135-47.019,54.366v212.842H303.595v-152.919c0-38.402,14.944-71.067,44.869-97.981
			c29.906-26.914,66.855-40.391,110.846-40.391c43.992,0,80.833,13.44,110.525,40.318c29.691,26.879,44.545,59.49,44.545,97.838
			v135.503c0,44.51-11.629,85.061-34.852,121.634L444.76,1819.703c-21.485,33.491-32.218,72.716-32.218,117.655v205.585h94.039
			v-260.325H614.38V2167.026z"/>
		<path fill="#2D332C" d="M1142.783,2035.77c0,37.899-15.841,70.405-47.504,97.497c-31.663,27.095-69.919,40.641-114.771,40.641
			c-44.421,0-82.57-13.546-114.448-40.641c-31.896-27.092-47.826-59.598-47.826-97.497v-684.753
			c0-37.881,15.93-70.386,47.826-97.479c31.878-27.094,70.027-40.659,114.448-40.659c44.852,0,83.107,13.565,114.771,40.659
			c31.663,27.093,47.504,59.598,47.504,97.479V2035.77z M1033.835,2095.584v-804.382c0-14.979-5.214-27.774-15.607-38.362
			c-10.411-10.574-22.991-15.878-37.72-15.878c-14.747,0-27.326,5.304-37.719,15.878c-10.411,10.588-15.608,23.384-15.608,38.362
			v804.382c0,14.997,5.197,27.793,15.608,38.365c10.393,10.588,22.972,15.875,37.719,15.875c14.729,0,27.309-5.287,37.72-15.875
			C1028.622,2123.377,1033.835,2110.581,1033.835,2095.584z"/>
		<path fill="#2D332C" d="M1505.508,2167.026h-175.463v-24.083h33.257v-900.246h-33.257v-24.084h142.205v924.33h33.258V2167.026z"/>
		<path fill="#2D332C" d="M2000.405,1242.697l-160.087,924.329h-107.12l160.088-924.329h-118.803v260.326h-105.506v-284.41h331.428
			V1242.697z"/>
	</g>
</g>
</svg>
