<?xml version="1.0" encoding="utf-8"?>
<!-- Generator: Adobe Illustrator 17.0.0, SVG Export Plug-In . SVG Version: 6.00 Build 0)  -->
<!DOCTYPE svg PUBLIC "-//W3C//DTD SVG 1.1//EN" "http://www.w3.org/Graphics/SVG/1.1/DTD/svg11.dtd">
<svg version="1.1" id="Layer_1" xmlns="http://www.w3.org/2000/svg" xmlns:xlink="http://www.w3.org/1999/xlink" x="0px" y="0px"
	 width="2304px" height="2304px" viewBox="0 0 2304 2304" enable-background="new 0 0 2304 2304" xml:space="preserve">
<g>
	<g>
		<path fill="#CBB03B" d="M196.294,478.046c0-342.097,0-375.472-108.47-375.472V62.246c72.314,0,179.392,2.781,308.721,2.781
			c139.063,0,286.471-1.391,399.114-2.783c-4.172,75.094-8.345,173.83-11.126,297.596h-38.938
			c-4.171-107.079-38.937-134.892-147.407-134.892H406.28v293.425H535.61c116.813,0,147.407-6.953,157.142-68.141l37.547,0.001
			c-2.782,45.891-4.172,95.953-4.172,143.235c0,55.625,1.39,111.251,4.172,162.704h-36.156
			c-8.344-66.75-38.938-77.876-154.361-77.876H406.28v243.361c0,52.845,4.171,58.407,55.625,58.407
			c63.969,1.391,118.204,2.781,182.173,0c80.657-2.781,125.158-22.25,133.502-118.204h38.938
			c-5.563,123.767-9.735,211.377-9.735,290.643c-114.033-1.391-246.143-2.781-368.519-2.781c-155.752,0-285.08,1.39-357.393,2.781
			v-40.329c115.423,0,115.423-33.375,115.423-400.503V478.046z"/>
		<path fill="#CBB03B" d="M911.075,478.046c0-342.097,0-375.472-108.47-375.472V62.246c72.312,0,179.392,2.781,308.721,2.781
			c139.063,0,286.47-1.391,399.112-2.783c-4.171,75.094-8.344,173.83-11.124,297.596h-38.938
			c-4.172-107.079-38.938-134.892-147.408-134.892h-191.908v293.425h129.329c116.813,0,147.408-6.953,157.142-68.141l37.547,0.001
			c-2.781,45.891-4.171,95.953-4.171,143.235c0,55.625,1.39,111.251,4.172,162.704h-36.156
			c-8.345-66.75-38.938-77.876-154.361-77.876h-133.502v243.361c0,52.845,4.172,58.407,55.627,58.407
			c63.969,1.391,118.204,2.781,182.173,0c80.657-2.781,125.157-22.25,133.502-118.204h38.937
			c-5.562,123.767-9.734,211.377-9.735,290.643c-114.031-1.391-246.141-2.781-368.518-2.781c-155.752,0-285.081,1.39-357.393,2.781
			v-40.329c115.423,0,115.423-33.375,115.423-400.503V478.046z"/>
		<path fill="#CBB03B" d="M1625.857,478.046c0-342.097,0-375.472-108.47-375.472V62.246c72.312,0,179.392,2.781,308.721,2.781
			c139.063,0,286.47-1.391,399.112-2.783c-4.171,75.094-8.344,173.83-11.124,297.596h-38.938
			c-4.172-107.079-38.938-134.892-147.408-134.892h-191.908v293.425h129.329c116.813,0,147.408-6.953,157.142-68.141l37.547,0.001
			c-2.781,45.891-4.171,95.953-4.171,143.235c0,55.625,1.39,111.251,4.172,162.704h-36.156
			c-8.345-66.75-38.938-77.876-154.361-77.876h-133.502v243.361c0,52.845,4.172,58.407,55.627,58.407
			c63.969,1.391,118.204,2.781,182.173,0c80.657-2.781,125.157-22.25,133.502-118.204h38.937
			c-5.562,123.767-9.734,211.377-9.735,290.643c-114.031-1.391-246.141-2.781-368.518-2.781c-155.752,0-285.081,1.39-357.393,2.781
			v-40.329c115.423,0,115.423-33.375,115.423-400.503V478.046z"/>
	</g>
	<g>
		<path fill="#2C332B" d="M329.154,1278.786c194.076,0,301.603,114.496,301.603,257.916c0,151.857-120.64,298.896-245.215,429.058
			c-68.189,71.11-157.358,154.268-216.368,201.272h342.255c78.678,0,107.528-6.025,119.329-108.47h26.227
			c-2.623,20.49-7.868,104.856-7.868,173.552c-78.68-1.205-157.358-2.411-236.038-2.411H52.467v-38.566
			c97.036-81.956,173.093-153.063,258.329-239.84c106.217-108.47,154.735-172.346,200.632-255.505
			c27.537-50.62,40.651-103.65,40.651-154.268c0-107.265-76.057-207.299-232.103-207.299c-53.764,0-118.019,8.438-157.358,44.594
			c-23.604,21.694-43.274,45.798-43.274,107.264H95.739c0-32.541-2.622-107.264-5.245-159.089
			c65.566-33.747,162.603-48.209,237.348-48.209H329.154z"/>
		<path fill="#2C332B" d="M954.654,1277.58c274.065,0,347.499,272.379,347.499,476.062c0,204.888-64.255,488.113-348.811,488.113
			c-280.622,0-350.121-273.584-350.121-488.113c0-207.298,76.055-476.062,350.121-476.062H954.654z M953.343,2185.11
			c218.99,0,272.754-255.505,272.754-431.469c0-151.857-49.83-419.417-274.065-419.417c-220.301,0-272.754,265.149-272.754,419.417
			c0,173.552,52.453,431.469,272.754,431.469H953.343z"/>
		<path fill="#2C332B" d="M1492.28,1945.273c0,250.684,1.312,262.738,144.245,262.738l-0.003,24.103
			c-32.783-1.205-111.461-2.411-179.649-2.411c-72.122,0-148.178,1.205-209.809,2.411v-24.103
			c171.783,0,171.783-12.054,171.783-262.738v-547.171c0-13.257-3.934-15.668-15.736-14.462
			c-22.291,2.411-103.594,25.31-167.849,37.363l-7.868-20.49c85.236-28.925,177.028-74.723,239.971-110.881h28.85
			c-2.623,106.059-3.934,209.708-3.934,315.769V1945.273z"/>
		<path fill="#2C332B" d="M2251.533,1929.605c0,84.364-40.651,167.525-95.726,218.145c-66.878,61.466-150.802,92.802-249.15,92.802
			c-211.122,0-335.697-134.987-335.697-304.923c0-59.055,13.112-118.111,36.716-175.961
			c30.16-73.519,74.745-141.011,135.066-215.734c77.368-95.213,166.537-186.809,245.217-254.303h97.038
			c-97.038,80.75-182.274,165.116-250.463,242.25c-48.518,55.44-99.659,124.138-128.508,174.756l1.312,1.205
			c55.074-45.798,131.131-75.929,222.923-75.929c186.208,0,321.274,132.574,321.274,296.485V1929.605z M1911.902,2185.11
			c146.867,0,262.263-112.086,262.263-248.276c0-137.395-99.659-248.276-264.886-248.276c-41.962,0-79.99,6.027-114.084,19.284
			c-30.16,12.052-62.943,30.13-87.857,56.646c-49.831,53.03-60.322,109.674-60.322,172.346
			c0,141.011,108.84,248.276,263.575,248.276H1911.902z"/>
	</g>
</g>
</svg>
